<svg width="183" height="141" viewBox="0 0 183 141" fill="none" xmlns="http://www.w3.org/2000/svg">
<path d="M15.0667 122.275L106.005 17.4296C106.209 17.194 106.209 16.8406 106.005 16.6051L91.8059 0.235036C91.6016 -0.000505026 91.2951 -0.000505026 91.0908 0.235036L0.152954 105.08C-0.0513458 105.316 -0.0513458 105.669 0.152954 105.904L14.3516 122.275C14.5559 122.51 14.8624 122.51 15.0667 122.275Z" fill="#6A3CAA"/>
<path d="M64.4558 140.823L155.394 35.9783C155.598 35.7427 155.598 35.3893 155.394 35.1538L141.195 18.7837C140.991 18.5482 140.684 18.5482 140.48 18.7837L49.5421 123.629C49.3378 123.864 49.3378 124.218 49.5421 124.453L63.7408 140.823C63.9451 141.059 64.2515 141.059 64.4558 140.823Z" fill="#6A3CAA"/>
<path d="M168.648 122.216L182.847 105.846C183.051 105.61 183.051 105.257 182.847 105.022L91.9089 0.176655C91.7046 -0.0588852 91.3982 -0.0588852 91.1939 0.176655L76.9953 16.5467C76.791 16.7823 76.791 17.1355 76.9953 17.371L167.933 122.216C168.112 122.452 168.444 122.452 168.648 122.216Z" fill="#6A3CAA"/>
<path d="M119.233 140.765L133.432 124.395C133.636 124.159 133.636 123.806 133.432 123.57L42.4942 18.7253C42.2899 18.4898 41.9834 18.4898 41.7791 18.7253L27.5804 35.0954C27.3761 35.3309 27.3761 35.6841 27.5804 35.9197L118.518 140.765C118.723 141 119.055 141 119.233 140.765Z" fill="#6A3CAA"/>
</svg>
