<svg width="183" height="206" viewBox="0 0 183 206" fill="none" xmlns="http://www.w3.org/2000/svg">
<path d="M41.3407 197.287L35.8807 183.117C35.7807 182.853 35.4167 182.915 35.3953 183.202L34.2534 197.496C34.2391 197.636 34.132 197.752 33.9964 197.752H29.2573C29.1074 197.752 28.9932 197.613 29.0003 197.45L31.1558 172.256C31.17 172.117 31.2771 172.008 31.4127 172.008H36.2946C36.3945 172.008 36.4873 172.078 36.5302 172.179L42.8681 188.721C42.9537 188.946 43.2535 188.946 43.3391 188.721L49.677 172.179C49.7198 172.078 49.8126 172.008 49.9126 172.008H54.7945C54.9229 172.008 55.0371 172.117 55.0514 172.256L57.2068 197.45C57.2211 197.613 57.0998 197.752 56.9499 197.752H52.2108C52.0823 197.752 51.9681 197.644 51.9538 197.496L50.8119 183.202C50.7904 182.915 50.4264 182.853 50.3265 183.117L44.8665 197.287C44.8237 197.388 44.7309 197.458 44.631 197.458H41.5833C41.4763 197.458 41.3835 197.388 41.3407 197.287Z" fill="#6A3CAA"/>
<path d="M59.7615 197.473V172.279C59.7615 172.124 59.8757 172 60.0184 172H75.2565C75.3993 172 75.5135 172.124 75.5135 172.279V176.248C75.5135 176.403 75.3993 176.527 75.2565 176.527H65.2715C65.1287 176.527 65.0145 176.651 65.0145 176.806V182.581C65.0145 182.736 65.1287 182.86 65.2715 182.86H73.8719C74.0146 182.86 74.1288 182.984 74.1288 183.14V187.109C74.1288 187.264 74.0146 187.388 73.8719 187.388H65.2715C65.1287 187.388 65.0145 187.512 65.0145 187.667V192.961C65.0145 193.116 65.1287 193.24 65.2715 193.24H75.2565C75.3993 193.24 75.5135 193.364 75.5135 193.519V197.488C75.5135 197.643 75.3993 197.767 75.2565 197.767H60.0184C59.8757 197.752 59.7615 197.628 59.7615 197.473Z" fill="#6A3CAA"/>
<path d="M15.0667 122.275L106.005 17.4296C106.209 17.194 106.209 16.8406 106.005 16.6051L91.8059 0.235036C91.6016 -0.000505026 91.2951 -0.000505026 91.0908 0.235036L0.152954 105.08C-0.0513458 105.316 -0.0513458 105.669 0.152954 105.904L14.3516 122.275C14.5559 122.51 14.8624 122.51 15.0667 122.275Z" fill="#6A3CAA"/>
<path d="M64.4558 140.823L155.394 35.9783C155.598 35.7427 155.598 35.3893 155.394 35.1538L141.195 18.7837C140.991 18.5482 140.684 18.5482 140.48 18.7837L49.5421 123.629C49.3378 123.864 49.3378 124.218 49.5421 124.453L63.7408 140.823C63.9451 141.059 64.2515 141.059 64.4558 140.823Z" fill="#6A3CAA"/>
<path d="M168.648 122.216L182.847 105.846C183.051 105.61 183.051 105.257 182.847 105.022L91.9089 0.176655C91.7046 -0.0588852 91.3982 -0.0588852 91.1939 0.176655L76.9953 16.5467C76.791 16.7823 76.791 17.1355 76.9953 17.371L167.933 122.216C168.112 122.452 168.444 122.452 168.648 122.216Z" fill="#6A3CAA"/>
<path d="M119.233 140.765L133.432 124.395C133.636 124.159 133.636 123.806 133.432 123.57L42.4942 18.7253C42.2899 18.4898 41.9834 18.4898 41.7791 18.7253L27.5804 35.0954C27.3761 35.3309 27.3761 35.6841 27.5804 35.9197L118.518 140.765C118.723 141 119.055 141 119.233 140.765Z" fill="#6A3CAA"/>
<path d="M82.5795 197.752H77.0338C76.8269 197.752 76.7055 197.504 76.8197 197.318L84.9491 184.302C85.0062 184.209 85.0062 184.085 84.9491 183.992L77.5691 172.442C77.4549 172.256 77.5763 172.008 77.7761 172.008H83.2932C83.3789 172.008 83.4574 172.054 83.5074 172.132L87.8254 179.302C87.9253 179.473 88.1537 179.473 88.2536 179.302L92.5717 172.132C92.6217 172.054 92.7002 172.008 92.7858 172.008H98.2815C98.4885 172.008 98.6098 172.256 98.4885 172.442L91.1086 183.992C91.0515 184.085 91.0515 184.209 91.1086 184.302L99.2379 197.318C99.3521 197.504 99.2308 197.752 99.0238 197.752H93.4781C93.3925 197.752 93.314 197.705 93.264 197.628L88.2394 189.14C88.1394 188.969 87.9111 188.969 87.8111 189.14L82.7865 197.628C82.7437 197.705 82.6651 197.752 82.5795 197.752Z" fill="#6A3CAA"/>
<path d="M101.608 197.473V172.279C101.608 172.124 101.722 172 101.865 172H111.093C115.632 172 118.238 175.752 118.238 180.093C118.238 184.434 115.597 188 111.093 188H105.255C105.112 188 104.998 188.124 104.998 188.279V197.752H101.865C101.722 197.752 101.608 197.628 101.608 197.473ZM110.194 185.062C112.599 185.062 114.598 183.016 114.705 180.411C114.84 177.24 113.156 175.023 110.379 175.023H105.248C105.105 175.023 104.991 175.147 104.991 175.302V184.791C104.991 184.946 105.105 185.07 105.248 185.07L110.194 185.062Z" fill="#6A3CAA"/>
<path d="M127.28 178.961C129.35 178.961 131.384 179.667 132.962 181.682C133.111 181.876 133.411 181.76 133.411 181.504V179.643C133.411 179.488 133.525 179.364 133.668 179.364H136.445C136.587 179.364 136.702 179.488 136.702 179.643V197.481C136.702 197.636 136.587 197.76 136.445 197.76H133.668C133.525 197.76 133.411 197.636 133.411 197.481V195.62C133.411 195.364 133.119 195.248 132.962 195.442C131.384 197.457 129.343 198.163 127.28 198.163C122.199 198.163 118.88 193.822 118.88 188.566C118.88 183.302 122.199 178.961 127.28 178.961ZM127.687 182.124C124.168 182.124 122.17 185.07 122.17 188.558C122.17 192.054 124.168 194.992 127.687 194.992C131.106 194.992 133.447 192.271 133.475 188.558C133.44 184.845 131.106 182.124 127.687 182.124Z" fill="#6A3CAA"/>
<path d="M152.475 179.364H155.744C155.929 179.364 156.051 179.566 155.979 179.752L145.802 205.829C145.759 205.93 145.666 206 145.566 206H142.925C142.747 206 142.625 205.806 142.69 205.628L145.666 197.248C145.687 197.178 145.687 197.101 145.659 197.039L138.714 179.767C138.643 179.581 138.764 179.38 138.95 179.38H142.147C142.247 179.38 142.34 179.45 142.383 179.55L147.258 192.45C147.343 192.682 147.65 192.674 147.729 192.442L152.246 179.558C152.275 179.434 152.368 179.364 152.475 179.364Z" fill="#6A3CAA"/>
</svg>
